<?xml version="1.0" standalone="no"?>
<!DOCTYPE svg PUBLIC "-//W3C//DTD SVG 20010904//EN"
 "http://www.w3.org/TR/2001/REC-SVG-20010904/DTD/svg10.dtd">
<svg version="1.0" xmlns="http://www.w3.org/2000/svg"
 width="1280.000000pt" height="1247.000000pt" viewBox="0 0 1280.000000 1247.000000"
 preserveAspectRatio="xMidYMid meet">
<metadata>
Created by potrace 1.16, written by Peter Selinger 2001-2019
</metadata>
<g transform="translate(0.000000,1247.000000) scale(0.100000,-0.100000)"
fill="#000000" stroke="none">
<path d="M7119 12468 c0 -2 -2 -129 -5 -283 -3 -154 -7 -285 -9 -291 -2 -8
-23 -6 -72 7 -79 22 -101 19 -56 -7 36 -21 37 -23 24 -43 -13 -20 -158 29
-306 104 -134 67 -429 260 -487 318 -39 38 -57 46 -59 25 -2 -18 -3 -13 31
-112 34 -98 70 -172 124 -256 19 -30 33 -56 32 -57 -1 -2 -49 13 -107 33 -225
76 -268 83 -457 78 l-170 -4 -7 27 c-4 16 -22 103 -40 195 -18 92 -36 172 -40
177 -3 6 -15 11 -25 11 -40 0 -92 -136 -151 -395 -17 -77 -35 -144 -39 -148
-4 -4 -42 6 -84 23 -43 17 -82 28 -87 25 -21 -13 -5 -54 61 -161 66 -105 79
-134 63 -134 -3 0 -46 27 -95 61 -49 33 -96 59 -106 57 -39 -7 -14 -110 78
-312 12 -26 18 -51 13 -55 -145 -125 -654 -371 -767 -371 -68 0 -88 -9 -84
-38 2 -20 17 -33 68 -60 36 -19 128 -71 205 -116 159 -92 158 -96 -13 -76
-111 13 -129 9 -117 -29 9 -30 95 -96 177 -137 64 -32 68 -36 62 -62 -12 -53
-142 -308 -198 -391 -31 -46 -51 -81 -44 -79 7 3 63 18 125 34 93 24 113 26
127 15 11 -9 14 -21 9 -39 -4 -16 -2 -23 4 -19 7 4 13 -16 17 -52 9 -79 39
-185 83 -298 l36 -93 -22 -58 c-30 -82 -35 -157 -22 -302 10 -108 16 -135 45
-197 32 -67 107 -163 128 -163 5 0 30 -16 55 -35 25 -19 50 -35 55 -35 29 0
101 -44 111 -68 7 -15 20 -39 30 -52 10 -14 40 -61 68 -105 69 -108 233 -310
326 -403 17 -17 23 -34 23 -67 0 -24 10 -68 22 -97 17 -43 22 -79 26 -194 2
-82 -1 -180 -8 -230 -6 -49 -13 -122 -15 -161 -3 -65 -7 -77 -37 -112 -18 -22
-35 -35 -39 -30 -3 5 -32 8 -65 7 -92 -4 -439 21 -539 38 -49 9 -149 17 -221
19 -72 2 -175 9 -228 15 -133 17 -249 10 -306 -19 -57 -29 -100 -69 -100 -93
0 -25 11 -23 70 17 28 19 68 39 88 45 44 12 199 13 206 2 3 -5 -39 -21 -92
-36 -53 -16 -138 -43 -188 -62 -51 -19 -97 -34 -104 -34 -22 0 -133 -61 -215
-118 -44 -31 -146 -121 -226 -201 -181 -182 -303 -337 -456 -580 -50 -78 -52
-85 -36 -97 26 -19 41 -17 48 7 4 11 9 18 12 15 9 -8 -133 -384 -168 -444 -16
-29 -40 -57 -52 -61 -34 -13 -43 -28 -67 -116 -23 -83 -64 -171 -84 -178 -7
-3 -67 -45 -135 -93 -185 -133 -229 -200 -238 -363 -5 -94 -6 -97 -42 -136
-21 -22 -59 -67 -86 -100 -27 -33 -124 -137 -215 -231 -169 -174 -249 -275
-316 -399 -21 -38 -46 -79 -56 -89 -22 -24 -23 -46 -3 -46 18 0 19 -20 3 -55
-14 -32 -24 -32 -32 0 -9 35 -18 31 -46 -19 -16 -31 -36 -50 -63 -62 -22 -10
-46 -28 -54 -41 -13 -20 -13 -25 3 -51 14 -25 15 -35 5 -62 -6 -18 -11 -48
-11 -66 0 -29 3 -34 24 -34 31 0 41 14 55 77 7 28 18 59 24 67 9 13 12 -79 12
-396 0 -486 20 -744 91 -1178 52 -318 162 -780 201 -839 23 -36 36 -12 18 33
-50 119 -133 468 -189 796 -72 420 -103 733 -113 1145 -7 319 1 464 25 471 10
3 34 14 54 24 20 11 43 20 49 20 7 0 24 11 38 24 38 35 330 156 531 219 223
70 298 98 495 185 192 84 321 136 515 207 133 48 483 186 591 233 25 11 115
57 200 104 84 46 165 89 179 95 14 7 86 41 160 76 74 35 225 116 334 180 170
99 221 123 339 163 134 44 146 46 296 53 86 4 158 6 160 4 8 -6 -18 -408 -33
-520 -8 -60 -22 -238 -31 -398 -9 -159 -21 -319 -26 -355 -4 -36 -13 -108 -19
-159 -6 -51 -19 -119 -30 -151 -23 -68 -16 -110 24 -141 32 -25 32 -33 3 -46
-38 -17 -97 -160 -97 -236 0 -40 40 -77 85 -77 20 0 35 -5 35 -12 0 -7 6 -5
18 4 9 9 37 24 62 35 58 25 100 74 100 116 0 18 -11 53 -25 79 -14 26 -25 56
-25 66 0 11 -16 37 -36 58 -35 38 -35 41 -29 96 6 58 22 116 35 131 4 4 5 -40
2 -98 -3 -72 -1 -105 6 -105 19 0 33 76 30 163 -3 73 -5 82 -22 82 -15 0 -26
-16 -44 -60 -13 -33 -31 -68 -39 -77 -9 -10 -13 -26 -10 -38 3 -13 0 -20 -9
-20 -19 0 -18 35 3 55 9 10 18 34 20 54 2 20 10 90 18 156 23 177 54 602 49
660 -2 28 0 120 6 205 6 85 13 242 15 349 l4 195 83 17 c46 9 117 26 158 38
94 26 134 26 232 0 79 -21 97 -34 157 -109 18 -24 20 -24 27 -6 12 32 -34 103
-138 210 -54 55 -98 106 -98 113 0 19 77 72 220 152 69 39 138 80 155 90 21
14 31 17 36 9 5 -8 52 9 148 55 77 37 143 67 145 67 3 0 93 43 202 95 108 52
199 95 201 95 2 0 28 11 56 24 58 26 128 44 112 28 -5 -5 -91 -58 -190 -117
-462 -276 -643 -424 -726 -592 -23 -45 -47 -84 -55 -87 -18 -7 -18 -46 0 -46
19 0 68 63 97 125 26 56 133 173 223 244 116 92 358 249 639 413 156 92 180
102 322 133 202 45 419 112 593 184 68 28 76 29 101 16 25 -12 31 -12 50 1 11
8 21 25 21 36 0 20 4 21 68 15 102 -9 193 -28 186 -38 -3 -6 26 -9 73 -7 64 2
78 6 81 20 2 13 -6 18 -35 23 -184 29 -263 45 -263 54 0 13 95 51 127 51 15 0
71 20 123 45 52 25 102 45 111 45 20 0 39 20 39 40 0 15 -37 49 -85 77 -51 31
-210 -6 -384 -89 l-65 -31 -72 17 c-40 10 -119 41 -176 70 -56 30 -129 61
-160 70 -69 20 -262 136 -276 167 -2 4 -21 30 -42 60 -22 29 -40 55 -40 59 0
3 41 33 90 66 l91 59 -138 7 c-117 5 -201 21 -216 39 -2 2 -7 19 -10 37 l-6
32 277 0 c739 0 1134 -52 1312 -174 88 -60 127 -115 265 -381 170 -326 301
-558 392 -690 44 -64 52 -70 88 -75 29 -4 83 -34 200 -111 221 -148 309 -226
373 -336 62 -105 75 -194 45 -318 -9 -38 -18 -101 -18 -140 l-2 -70 -46 -3
c-42 -3 -50 1 -89 36 -56 51 -137 112 -149 112 -11 0 -12 -60 -1 -60 4 0 25
-16 47 -35 l40 -34 -63 15 c-35 8 -68 12 -73 8 -14 -8 -11 -22 5 -26 30 -7
321 -272 542 -492 296 -297 536 -575 746 -866 64 -88 81 -121 108 -205 17 -55
35 -110 40 -122 5 -13 7 -31 4 -40 -5 -14 -4 -15 4 -4 8 11 14 2 26 -40 37
-127 111 -498 101 -507 -3 -3 -5 3 -5 13 0 10 -3 15 -6 12 -4 -4 0 -37 9 -74
87 -363 102 -465 252 -1748 105 -888 109 -932 97 -972 l-10 -33 38 0 c37 0 38
1 38 38 0 93 -24 437 -54 762 -23 252 -71 624 -109 850 -8 47 -21 123 -29 170
-7 47 -32 191 -55 320 -22 129 -61 354 -86 500 -50 292 -99 515 -151 689 -19
62 -33 115 -31 118 6 6 84 -118 129 -207 41 -80 64 -96 62 -44 -2 37 -50 123
-181 321 -60 92 -93 152 -93 170 -1 37 -36 113 -53 113 -17 0 -111 100 -278
295 -75 88 -145 169 -155 180 -11 12 -48 54 -84 95 -35 41 -78 89 -95 107 -16
17 -39 42 -49 55 -48 58 -91 103 -98 100 -5 -1 -7 4 -6 10 2 7 -4 12 -13 10
-9 -1 -75 52 -148 118 -72 66 -173 154 -224 196 -51 42 -96 81 -102 86 -13 12
73 -1 103 -16 12 -7 55 -44 96 -84 55 -55 88 -78 134 -96 34 -14 62 -21 62
-18 0 4 -44 48 -99 97 l-98 90 51 17 c51 17 102 61 90 79 -4 6 -11 6 -20 -2
-19 -15 -18 9 1 126 27 168 16 251 -52 374 -59 106 -166 203 -388 350 -153
101 -203 129 -220 125 -20 -5 -30 5 -72 68 -28 40 -84 132 -125 203 -70 121
-104 185 -314 578 -119 224 -195 296 -378 358 -207 69 -417 90 -1001 98 l-469
6 -28 114 c-15 62 -34 161 -42 220 l-16 106 5 -105 c6 -128 21 -223 40 -261
20 -37 10 -61 -23 -57 -32 4 -46 43 -61 164 -14 118 -15 491 0 499 19 12 24
-5 30 -103 l6 -97 1 113 c2 79 5 112 14 112 14 0 68 50 68 62 0 17 -28 6 -55
-22 -27 -28 -55 -40 -55 -22 0 4 23 30 50 57 28 27 50 53 50 58 0 4 -17 -8
-37 -28 -43 -41 -81 -66 -67 -43 4 7 29 40 55 73 25 33 66 96 89 140 24 44 67
121 97 172 29 50 63 122 74 160 12 37 27 75 34 83 7 8 22 36 33 63 18 39 29
51 67 67 132 56 264 195 343 360 36 74 36 75 37 210 0 164 -24 261 -76 304
-17 14 -34 26 -38 26 -4 0 5 64 20 143 16 78 34 180 40 227 14 111 48 313 53
318 2 2 23 -6 47 -18 53 -28 127 -30 163 -7 14 10 26 22 26 28 0 6 -40 50 -89
98 -49 48 -105 114 -126 147 -21 32 -51 79 -67 103 l-29 44 28 -7 c68 -15 173
-19 188 -6 35 29 4 66 -102 126 -35 20 -104 68 -151 108 -48 39 -115 95 -150
123 -70 58 -124 121 -148 173 -21 44 -15 87 42 308 24 96 41 179 37 185 -4 7
-6 26 -4 44 5 58 -25 40 -65 -39 -26 -53 -62 -100 -128 -168 -51 -52 -100
-108 -110 -123 -24 -36 -35 -34 -78 11 -32 32 -40 50 -59 137 -39 182 -139
466 -220 627 -21 41 -35 58 -49 58 -11 0 -20 -1 -21 -2z m344 -2487 c45 -21
100 -53 122 -71 l40 -33 -60 7 c-151 15 -159 17 -190 53 -42 47 -121 68 -175
47 -21 -9 -52 -31 -69 -50 -31 -33 -34 -34 -108 -34 l-76 0 19 21 c26 28 96
69 158 91 41 15 71 17 154 13 94 -4 111 -8 185 -44z m1435 -3203 c19 -19 15
-26 -18 -33 -17 -4 -71 -24 -121 -46 -76 -33 -101 -39 -159 -39 -38 0 -71 4
-74 9 -5 8 149 78 239 109 42 14 119 14 133 0z m-3632 -438 c119 -47 249 -134
398 -264 99 -86 230 -216 224 -222 -10 -9 -280 164 -398 256 -69 53 -181 137
-250 185 -114 80 -121 87 -85 81 22 -4 72 -20 111 -36z m1292 -433 c-53 -39
-131 -87 -263 -162 -66 -37 -127 -74 -136 -82 -15 -13 -19 -12 -33 9 -9 12
-16 26 -16 29 0 10 275 154 362 189 78 32 116 39 86 17z m-722 -364 c17 -17
17 -18 -2 -21 -10 -2 -80 -33 -154 -68 -219 -106 -272 -126 -327 -122 l-48 3
40 21 c22 12 101 47 175 77 74 30 169 71 210 90 89 42 84 41 106 20z m106 -71
c31 -20 57 -40 58 -43 1 -19 -437 -109 -473 -96 -6 2 33 27 88 54 55 28 132
69 170 92 39 22 77 38 85 35 8 -3 41 -22 72 -42z m-1378 -472 c-5 -5 -90 -50
-189 -100 -99 -49 -243 -123 -320 -165 -125 -66 -401 -182 -411 -172 -2 2 38
23 88 47 51 24 185 88 298 143 113 54 257 124 320 154 63 29 138 65 165 78 57
27 63 29 49 15z m1016 -1559 c0 -11 5 -23 12 -27 7 -4 8 -3 4 4 -4 7 -3 12 3
12 5 0 13 -4 16 -10 3 -5 15 -10 25 -10 22 0 60 -45 60 -72 0 -28 -54 -78 -84
-78 -24 0 -26 3 -27 53 l-2 52 -6 -52 c-8 -62 -20 -78 -55 -69 -19 5 -26 13
-26 29 0 29 27 123 46 160 17 31 34 36 34 8z"/>
<path d="M2601 5998 c-110 -64 -212 -181 -270 -312 -22 -51 -17 -76 12 -60 9
5 37 41 64 81 26 39 95 126 151 193 57 67 102 123 100 125 -2 2 -27 -10 -57
-27z"/>
<path d="M7830 5373 c-30 -1 -210 -10 -400 -18 -394 -18 -529 -28 -653 -52
-85 -16 -88 -16 -102 3 -13 18 -14 16 -15 -18 0 -47 -1 -47 110 -25 79 16 252
35 359 38 l64 3 -2 -104 c-1 -58 -6 -109 -11 -115 -16 -21 -30 -432 -29 -852
2 -414 3 -434 22 -450 18 -17 19 -17 33 2 8 10 14 33 14 51 0 50 21 64 83 58
42 -5 57 -12 80 -37 32 -37 35 -63 6 -72 -25 -8 -41 -48 -33 -82 6 -24 5 -25
-17 -19 -131 40 -131 40 -153 -135 -18 -139 -18 -143 0 -156 19 -14 30 -13
129 9 75 17 79 23 88 151 4 62 8 127 8 146 0 28 5 35 30 44 52 20 46 69 -18
153 l-23 31 -2 652 c0 358 -5 651 -9 651 -21 0 -26 -31 -49 -290 -10 -108 -7
-520 6 -820 4 -109 3 -123 -9 -107 -21 25 -27 21 -27 -17 0 -35 -15 -46 -67
-46 l-23 0 0 428 c1 235 6 472 12 527 12 109 14 211 8 322 -2 40 -2 75 1 77 6
6 440 26 751 35 612 17 1083 -25 1603 -143 83 -18 152 -32 155 -29 33 31 -370
122 -770 173 -245 31 -421 40 -770 38 -179 -1 -350 -3 -380 -5z m-491 -1753
c16 -8 17 -17 9 -70 -10 -76 -10 -76 -54 -90 -59 -20 -62 -13 -50 82 7 45 15
88 19 95 8 12 33 7 76 -17z"/>
<path d="M5842 5178 c-2 -102 -36 -434 -47 -465 -2 -7 -11 -13 -18 -13 -11 0
-15 -44 -21 -222 -6 -205 -16 -346 -32 -456 -5 -36 -9 -41 -21 -31 -12 11 -13
5 -7 -40 6 -49 10 -76 13 -109 0 -8 10 -12 23 -10 20 3 24 14 39 108 10 58 23
188 29 290 6 102 18 208 25 235 31 111 70 755 49 809 -3 9 -11 16 -18 16 -8 0
-12 -34 -14 -112z"/>
<path d="M11341 3415 c-7 -32 -44 -158 -81 -280 -223 -720 -341 -1222 -485
-2050 -20 -115 -38 -211 -40 -213 -1 -2 -6 57 -9 130 -26 499 -75 859 -142
1035 -28 71 -27 41 0 -60 36 -130 62 -292 80 -492 18 -188 36 -539 36 -681 0
-67 4 -95 14 -103 18 -15 18 -12 102 464 135 776 242 1240 425 1846 72 239
121 428 117 449 -2 8 -10 -12 -17 -45z"/>
<path d="M1496 3319 c-2 -8 -12 -41 -21 -74 -10 -33 -23 -80 -31 -105 -66
-223 -136 -591 -228 -1210 -101 -670 -148 -920 -266 -1404 -96 -395 -110 -479
-78 -499 14 -9 23 -5 48 23 35 39 41 61 8 30 -27 -25 -38 -25 -38 -2 0 29 45
233 105 477 81 331 83 340 104 451 41 205 92 529 181 1144 39 273 75 490 107
655 14 72 29 150 33 175 4 25 17 79 29 120 41 148 59 225 55 229 -2 2 -6 -2
-8 -10z"/>
<path d="M4807 3222 c97 -179 1361 -1455 2138 -2157 54 -49 126 -115 160 -145
33 -30 108 -97 167 -149 59 -52 105 -97 103 -101 -8 -13 46 -43 57 -32 11 11
-4 26 -352 338 -719 646 -1779 1687 -2136 2100 -44 50 -96 111 -117 135 -34
39 -36 40 -20 11z"/>
<path d="M1455 2044 c5 -65 57 -227 232 -719 127 -356 158 -434 204 -509 39
-64 78 -91 101 -68 9 9 9 15 0 24 -9 9 -12 9 -12 0 0 -30 -39 11 -73 75 -47
89 -75 163 -222 568 -68 187 -142 390 -165 450 -23 61 -48 139 -56 175 l-14
65 5 -61z"/>
<path d="M4300 1448 c16 -16 171 -147 265 -224 440 -359 955 -651 1610 -911
303 -121 875 -313 930 -312 32 0 10 9 -105 45 -573 179 -967 332 -1385 539
-432 214 -752 419 -1145 735 -120 97 -194 152 -170 128z"/>
<path d="M560 791 c-24 -62 -146 -286 -183 -335 -46 -60 -67 -113 -66 -168 0
-59 15 -98 77 -211 43 -76 44 -77 83 -77 21 0 39 3 39 6 0 4 -17 34 -39 68
-57 90 -90 160 -96 203 -6 39 0 53 84 183 13 19 47 78 77 132 56 99 62 130 44
203 l-7 30 -13 -34z"/>
</g>
</svg>
